REM DIRINDEX 1\2\5,1\2\6,1\2\7,1\2\8,1\3\9,1\3\10,1\3\11,1\4\12,1\4\13,1\4\14,1\4\15,1\4\16
REM DIRNAME cjc034,folder01,folder02,folder03,folder04,folder05,folder06,folder07,folder08,folder09,folder10,folder11,folder12,folder13,folder14,folder15
TITLE ""
FILE "1200_2_sec01_0144_0160.mp3" MP3
  TRACK 01 AUDIO
    TITLE "0:"
    INDEX 01 00:00:00
  TRACK 02 AUDIO
    TITLE "10:cjc034_00294"
    INDEX 01 00:00:15
  TRACK 03 AUDIO
    TITLE "0:"
    INDEX 01 00:01:26
  TRACK 04 AUDIO
    TITLE "9:cjc034_00295"
    INDEX 01 00:01:34
  TRACK 05 AUDIO
    TITLE "0:"
    INDEX 01 00:02:51
  TRACK 06 AUDIO
    TITLE "10:cjc034_00296"
    INDEX 01 00:03:33
  TRACK 07 AUDIO
    TITLE "0:"
    INDEX 01 00:05:32
  TRACK 08 AUDIO
    TITLE "9:cjc034_00297"
    INDEX 01 00:05:38
  TRACK 09 AUDIO
    TITLE "0:"
    INDEX 01 00:06:57
  TRACK 10 AUDIO
    TITLE "10:cjc034_00298"
    INDEX 01 00:07:39
  TRACK 11 AUDIO
    TITLE "0:"
    INDEX 01 00:08:50
  TRACK 12 AUDIO
    TITLE "9:cjc034_00299"
    INDEX 01 00:08:60
  TRACK 13 AUDIO
    TITLE "0:"
    INDEX 01 00:09:63
  TRACK 14 AUDIO
    TITLE "10:cjc034_00300"
    INDEX 01 00:10:49
  TRACK 15 AUDIO
    TITLE "0:"
    INDEX 01 00:11:66
  TRACK 16 AUDIO
    TITLE "9:cjc034_00301"
    INDEX 01 00:11:70
  TRACK 17 AUDIO
    TITLE "0:"
    INDEX 01 00:13:14
  TRACK 18 AUDIO
    TITLE "10:cjc034_00302"
    INDEX 01 00:13:73
  TRACK 19 AUDIO
    TITLE "0:"
    INDEX 01 00:14:68
  TRACK 20 AUDIO
    TITLE "9:cjc034_00303"
    INDEX 01 00:15:03
  TRACK 21 AUDIO
    TITLE "0:"
    INDEX 01 00:16:04
  TRACK 22 AUDIO
    TITLE "10:cjc034_00304"
    INDEX 01 00:16:57
  TRACK 23 AUDIO
    TITLE "0:"
    INDEX 01 00:18:03
  TRACK 24 AUDIO
    TITLE "9:cjc034_00305"
    INDEX 01 00:18:07
  TRACK 25 AUDIO
    TITLE "0:"
    INDEX 01 00:19:20
  TRACK 26 AUDIO
    TITLE "10:cjc034_00306"
    INDEX 01 00:20:02
  TRACK 27 AUDIO
    TITLE "0:"
    INDEX 01 00:21:09
  TRACK 28 AUDIO
    TITLE "9:cjc034_00307"
    INDEX 01 00:21:11
  TRACK 29 AUDIO
    TITLE "0:"
    INDEX 01 00:22:15
  TRACK 30 AUDIO
    TITLE "10:cjc034_00308"
    INDEX 01 00:23:03
  TRACK 31 AUDIO
    TITLE "0:"
    INDEX 01 00:25:05
  TRACK 32 AUDIO
    TITLE "9:cjc034_00309"
    INDEX 01 00:25:07
  TRACK 33 AUDIO
    TITLE "0:"
    INDEX 01 00:26:20
  TRACK 34 AUDIO
    TITLE "10:cjc034_00310"
    INDEX 01 00:27:06
  TRACK 35 AUDIO
    TITLE "0:"
    INDEX 01 00:29:44
  TRACK 36 AUDIO
    TITLE "9:cjc034_00311"
    INDEX 01 00:29:48
  TRACK 37 AUDIO
    TITLE "0:"
    INDEX 01 00:30:48
  TRACK 38 AUDIO
    TITLE "10:cjc034_00312"
    INDEX 01 00:31:33
  TRACK 39 AUDIO
    TITLE "0:"
    INDEX 01 00:32:50
  TRACK 40 AUDIO
    TITLE "9:cjc034_00313"
    INDEX 01 00:32:52
  TRACK 41 AUDIO
    TITLE "0:"
    INDEX 01 00:33:56
  TRACK 42 AUDIO
    TITLE "10:cjc034_00314"
    INDEX 01 00:34:43
  TRACK 43 AUDIO
    TITLE "0:"
    INDEX 01 00:35:53
  TRACK 44 AUDIO
    TITLE "9:cjc034_00315"
    INDEX 01 00:35:57
  TRACK 45 AUDIO
    TITLE "0:"
    INDEX 01 00:36:66
  TRACK 46 AUDIO
    TITLE "10:cjc034_00316"
    INDEX 01 00:37:48
  TRACK 47 AUDIO
    TITLE "0:"
    INDEX 01 00:39:45
  TRACK 48 AUDIO
    TITLE "9:cjc034_00317"
    INDEX 01 00:39:52
  TRACK 49 AUDIO
    TITLE "0:"
    INDEX 01 00:40:60
  TRACK 50 AUDIO
    TITLE "10:cjc034_00318"
    INDEX 01 00:41:45
  TRACK 51 AUDIO
    TITLE "0:"
    INDEX 01 00:42:63
  TRACK 52 AUDIO
    TITLE "9:cjc034_00319"
    INDEX 01 00:42:70
  TRACK 53 AUDIO
    TITLE "0:"
    INDEX 01 00:44:05
  TRACK 54 AUDIO
    TITLE "10:cjc034_00320"
    INDEX 01 00:44:61
  TRACK 55 AUDIO
    TITLE "0:"
    INDEX 01 00:45:53
  TRACK 56 AUDIO
    TITLE "9:cjc034_00321"
    INDEX 01 00:45:59
  TRACK 57 AUDIO
    TITLE "0:"
    INDEX 01 00:46:74
  TRACK 58 AUDIO
    TITLE "10:cjc034_00322"
    INDEX 01 00:47:54
  TRACK 59 AUDIO
    TITLE "0:"
    INDEX 01 00:48:51
  TRACK 60 AUDIO
    TITLE "9:cjc034_00323"
    INDEX 01 00:48:53
  TRACK 61 AUDIO
    TITLE "0:"
    INDEX 01 00:49:63
  TRACK 62 AUDIO
    TITLE "10:cjc034_00324"
    INDEX 01 00:50:46
  TRACK 63 AUDIO
    TITLE "0:"
    INDEX 01 00:51:67
  TRACK 64 AUDIO
    TITLE "9:cjc034_00325"
    INDEX 01 00:51:73
  TRACK 65 AUDIO
    TITLE "0:"
    INDEX 01 00:53:35
  TRACK 66 AUDIO
    TITLE "10:cjc034_00326"
    INDEX 01 00:54:17
  TRACK 67 AUDIO
    TITLE "0:"
    INDEX 01 00:55:26
  TRACK 68 AUDIO
    TITLE "9:cjc034_00327"
    INDEX 01 00:55:34
  TRACK 69 AUDIO
    TITLE "0:"
    INDEX 01 00:56:39
